<svg id="Capa_1" enable-background="new 0 0 512 512" height="512" viewBox="0 0 512 512" width="512" xmlns="http://www.w3.org/2000/svg"><g><path d="m512 256c0 8.89-.45 17.68-1.34 26.34v.01l-46.76 123.05c-2.44 3.39-4.96 6.71-7.56 9.97l-35.7 17.22c-104.02 50.17-225.26 50.17-329.28 0l-35.7-17.22c-3.64-4.55-7.11-9.24-10.43-14.04l-44.44-125.08c-.53-6.68-.79-13.43-.79-20.25 0-46.22 12.25-89.57 33.68-127 44.12-77.07 127.16-129 222.32-129s178.2 51.93 222.32 129c21.43 37.43 33.68 80.78 33.68 127z" fill="#00e1c3"/><path d="m512 256c0 8.89-.45 17.68-1.34 26.34l-46.76 123.06c-2.44 3.39-4.96 6.71-7.56 9.97l-35.7 17.22c-104.02 50.17-225.26 50.17-329.28 0l-35.7-17.22c-3.64-4.55-7.11-9.24-10.43-14.04l-44.44-125.08c-.52-6.68-.79-13.44-.79-20.25 0-46.22 12.25-89.57 33.68-127 18.34 32.04 43.4 59.72 73.27 81.14 20.4 14.65 43.05 26.36 67.32 34.53 25.67 8.65 53.15 13.33 81.73 13.33 95.16 0 178.2-51.93 222.32-129 21.43 37.43 33.68 80.78 33.68 127z" fill="#05d3b0"/><path d="m256 512c-81.13 0-153.46-37.75-200.36-96.64h400.72" fill="#c4f258"/><path d="m456.36 415.36c-46.9 58.89-119.23 96.64-200.36 96.64v-96.64z" fill="#b1d511"/><g><g><path d="m174.27 244.67c-16.81-19.12-40.59-31.96-67.32-34.53-3.26-.32-6.57-.48-9.92-.48-43.94 0-81.54 27.72-96.24 66.59 3.62 46.23 19.52 89.01 44.44 125.08 15.22 8.92 32.92 14.03 51.8 14.03 56.71 0 102.87-46.13 102.87-102.85 0-25.97-9.68-49.72-25.63-67.84zm-77.24 127.94c-33.14 0-60.1-26.96-60.1-60.1 0-33.13 26.96-60.09 60.1-60.09 33.15 0 60.1 26.96 60.1 60.09 0 33.14-26.95 60.1-60.1 60.1z" fill="#374c81"/></g><path d="m97.035 229.572c-45.73 0-82.952 37.196-82.952 82.94s37.222 82.952 82.952 82.952c45.743 0 82.952-37.209 82.952-82.952s-37.209-82.94-82.952-82.94zm0 143.04c-33.142 0-60.1-26.958-60.1-60.1 0-33.129 26.958-60.087 60.1-60.087s60.1 26.958 60.1 60.087c0 33.142-26.958 60.1-60.1 60.1z" fill="#323b5a"/><path d="m251.655 308.432-10.044 2.388-10.058 2.389-46.208-194.683 10.058-2.389 10.044-2.388z" fill="#f50000"/><path d="m218.367 112.239h10.325v200.092h-10.325z" fill="#c10000" transform="matrix(.973 -.231 .231 .973 -43.047 57.472)"/><g><path d="m421.21 222.2c-53.24 0-96.57 43.32-96.57 96.59 0 53.25 43.33 96.57 96.57 96.57 15.31 0 29.81-3.58 42.69-9.96 25.44-35.34 42.09-77.42 46.76-123.06-14.4-35.25-49.07-60.14-89.45-60.14zm.02 156.67c-33.15 0-60.1-26.95-60.1-60.08 0-33.15 26.95-60.1 60.1-60.1 33.14 0 60.1 26.95 60.1 60.1 0 33.13-26.96 60.08-60.1 60.08z" fill="#374c81"/></g><g><path d="m421.227 240.559c-43.135 0-78.227 35.079-78.227 78.227 0 43.135 35.092 78.227 78.227 78.227s78.227-35.092 78.227-78.227c0-43.148-35.092-78.227-78.227-78.227zm0 138.315c-33.142 0-60.1-26.958-60.1-60.087 0-33.142 26.958-60.1 60.1-60.1s60.1 26.958 60.1 60.1c0 33.129-26.958 60.087-60.1 60.087z" fill="#323b5a"/></g><g><ellipse cx="421.226" cy="318.782" fill="#d1f6ff" rx="25.015" ry="25.015" transform="matrix(.159 -.987 .987 .159 39.546 683.985)"/><ellipse cx="421.226" cy="318.782" fill="#313b5a" rx="14.372" ry="14.372" transform="matrix(.923 -.386 .386 .923 -90.413 187.332)"/></g><g><path d="m403.854 106.646c0-5.819-4.717-10.537-10.537-10.537h-49.834c-2.306 0-4.609.626-6.462 1.997-3.644 2.696-5.104 7.205-3.954 11.356l30.748 110.903c1.284 4.674 5.517 7.74 10.134 7.74.939 0 1.878-.134 2.835-.383 1.207-.345 2.299-.881 3.276-1.59.328-.231.624-.496.921-.762v-21.947l-23.91-86.24h36.246c5.819 0 10.537-4.718 10.537-10.537z" fill="#fff"/><path d="m403.854 106.646h-60.634l12.874 46.419 20.69 74.657 3.276-1.59c.328-.231.624-.496.921-.762v-21.947l-23.91-86.24h36.246c5.819 0 10.537-4.718 10.537-10.537z" fill="#d1f6ff"/></g><path d="m428.664 304.83c-21.613-36.719-38.087-76.213-48.984-117.412-.013-.052-.026-.103-.039-.155l-9.479-34.199h-28.139l11.461 41.364c11.529 43.561 28.959 85.328 51.824 124.151 2.518 4.299 7.049 6.688 11.684 6.688 2.337 0 4.713-.607 6.869-1.872 6.455-3.795 8.599-12.11 4.803-18.565z" fill="#f50000"/><path d="m428.664 304.83c-21.613-36.719-38.087-76.213-48.984-117.412-.013-.052-.026-.103-.039-.155l-9.479-34.199h-14.068l10.482 37.827c11.207 42.386 28.172 83.03 50.404 120.82l6.882 11.684c6.454-3.795 8.598-12.11 4.802-18.565z" fill="#c10000"/><path d="m385.322 207.043-9.025-31.825c-1.666-5.823-6.985-9.851-13.04-9.851h-159.669c-4.093 0-7.979 1.846-10.548 5.035l-106.554 131.897c-3.279 4.067-3.938 9.657-1.691 14.37 2.259 4.712 7.011 7.708 12.24 7.708h144.576c2.982 0 5.874-.981 8.237-2.789l130.671-100.085c4.416-3.383 6.326-9.115 4.803-14.46zm-259.909 90.221 84.644-104.785h142.949l3.718 13.092-119.71 91.693z" fill="#ff4852"/><path d="m363.257 178.923h-159.669l-106.553 131.897h144.576l130.671-100.085zm-126.243 118.341h-111.601l84.644-104.785h142.949l3.718 13.092z" fill="#f50000"/><g><path d="m260.779 130.484c0 6.731-5.446 12.178-12.166 12.178h-68.19c-5.754 0-10.961-2.331-14.736-6.106-2.865-2.865-4.901-6.561-5.708-10.7-.261-1.308-.398-2.649-.398-4.037 0-13.633 12.872-23.594 26.062-20.183l66.007 17.067c2.695.694 4.969 2.251 6.583 4.332.671.853 1.217 1.808 1.626 2.82.602 1.434.92 3.003.92 4.629z" fill="#535e89"/><circle cx="97.034" cy="310.822" fill="#fff" r="25.015"/><path d="m233.652 282.404v44.806l-128.658-10.393v-12.607zm7.959-9.422-144.577 24.504v26.673l144.577 11.679z" fill="#313b5a"/><ellipse cx="241.611" cy="304.41" fill="#313b5a" rx="31.428" ry="31.428" transform="matrix(.707 -.707 .707 .707 -144.484 260.005)"/><ellipse cx="241.611" cy="304.41" fill="#fff" rx="11.078" ry="11.078" transform="matrix(.672 -.74 .74 .672 -146.167 278.542)"/><g><path d="m260.779 130.484c0 6.731-5.446 12.178-12.166 12.178h-68.19c-5.754 0-10.961-2.331-14.736-6.106-2.865-2.865-4.901-6.561-5.708-10.7h99.88c.602 1.433.92 3.002.92 4.628z" fill="#313b5a"/></g><circle cx="97.034" cy="310.822" fill="#313b5a" r="13.336"/><circle cx="97.034" cy="310.822" fill="#fff" r="5.636"/></g><circle cx="396.376" cy="106.646" fill="#535e89" r="19.902"/><circle cx="396.376" cy="106.646" fill="#313b5a" r="8.026"/></g></g></svg>